<?xml version="1.0" encoding="UTF-8"?>
<!-- Samodejno generirano iz accounting.svg: napis #231F20 -> #ECE8E5 za temno temo.
     Ob posodobitvi znamčnih datotek ponovno generiraj, ne urejaj ročno. -->
<svg width="230px" height="63px" viewBox="0 0 230 63" version="1.1" xmlns="http://www.w3.org/2000/svg" xmlns:xlink="http://www.w3.org/1999/xlink">
    <!-- Generator: Sketch 52.2 (67145) - http://www.bohemiancoding.com/sketch -->
    <title>Pantheon/Accounting</title>
    <desc>Created with Sketch.</desc>
    <defs>
        <polygon id="path-1" points="0.0001 0.6382 62.3621 0.6382 62.3621 63 0.0001 63"></polygon>
        <polygon id="path-3" points="0 63.362 229.65 63.362 229.65 1 0 1"></polygon>
    </defs>
    <g id="Styleguide" stroke="none" stroke-width="1" fill="none" fill-rule="evenodd">
        <g id="UI-Styleguide---Pantheon" transform="translate(-507.000000, -898.000000)">
            <g id="Pantheon/Accounting" transform="translate(507.000000, 897.000000)">
                <g id="Group-3" transform="translate(0.000000, 0.362000)">
                    <mask id="mask-2" fill="white">
                        <use xlink:href="#path-1"></use>
                    </mask>
                    <g id="Clip-2"></g>
                    <path d="M31.1811,63.0002 C48.4021,63.0002 62.3621,49.0402 62.3621,31.8182 C62.3621,14.5982 48.4021,0.6382 31.1811,0.6382 C13.9601,0.6382 0.0001,14.5982 0.0001,31.8182 C0.0001,49.0402 13.9601,63.0002 31.1811,63.0002" id="Fill-1" fill="#FAAE17" mask="url(#mask-2)"></path>
                </g>
                <mask id="mask-4" fill="white">
                    <use xlink:href="#path-3"></use>
                </mask>
                <g id="Clip-5"></g>
                <path d="M36.49,49.615 L42.793,49.615 L42.793,29.041 L36.49,29.041 L36.49,49.615 Z M28.027,49.615 L34.332,49.615 L34.332,29.041 L28.027,29.041 L28.027,49.615 Z M19.567,49.615 L25.872,49.615 L25.872,29.041 L19.567,29.041 L19.567,49.615 Z M16.8,27.302 L45.562,27.302 L45.562,24.424 L16.8,24.424 L16.8,27.302 Z M14.339,22.687 L48.023,22.687 L48.023,15.951 L14.339,15.951 L14.339,22.687 Z" id="Fill-4" fill="#FEFEFE" mask="url(#mask-4)"></path>
                <path d="M73.1447,54.5146 L74.8857,54.5146 L76.4297,49.1226 L85.1327,49.1226 L86.7057,54.5146 L88.4177,54.5146 L82.8307,35.0006 L78.7597,35.0006 L73.1447,54.5146 Z M80.0237,36.5176 L81.5397,36.5176 L84.7117,47.5786 L76.8507,47.5786 L80.0237,36.5176 Z M96.2787,40.1956 C92.0957,40.1956 90.4677,42.1056 90.4677,47.2426 C90.4677,52.7736 91.7027,54.7946 96.2507,54.7946 C97.4587,54.7946 99.9567,54.4576 99.9567,54.4576 L99.9007,53.0266 C99.9007,53.0266 97.6267,53.2796 96.5597,53.2796 C92.8817,53.2796 92.2077,51.6506 92.2077,47.2426 C92.2077,43.1996 93.1907,41.7106 96.5597,41.7106 C97.6267,41.7106 99.8447,41.9926 99.8447,41.9926 L99.9287,40.5606 C99.9287,40.5606 97.4867,40.1956 96.2787,40.1956 Z M108.2397,40.1956 C104.0567,40.1956 102.4277,42.1056 102.4277,47.2426 C102.4277,52.7736 103.6637,54.7946 108.2117,54.7946 C109.4187,54.7946 111.9177,54.4576 111.9177,54.4576 L111.8617,53.0266 C111.8617,53.0266 109.5877,53.2796 108.5207,53.2796 C104.8427,53.2796 104.1687,51.6506 104.1687,47.2426 C104.1687,43.1996 105.1517,41.7106 108.5207,41.7106 C109.5877,41.7106 111.8057,41.9926 111.8057,41.9926 L111.8897,40.5606 C111.8897,40.5606 109.4467,40.1956 108.2397,40.1956 Z M120.2847,40.1956 C115.9327,40.1956 114.3887,42.3286 114.3887,47.2986 C114.3887,52.6056 115.5677,54.7946 120.2847,54.7946 C124.9727,54.7946 126.1527,52.6056 126.1527,47.2986 C126.1527,42.3286 124.6077,40.1956 120.2847,40.1956 Z M120.2847,53.3076 C116.6347,53.3076 116.1287,51.5936 116.1287,47.2986 C116.1287,43.0866 117.0557,41.6836 120.2847,41.6836 C123.4847,41.6836 124.4397,43.0866 124.4397,47.2986 C124.4397,51.5936 123.9057,53.3076 120.2847,53.3076 Z M138.6457,40.4766 L138.6457,52.0996 C138.6457,52.0996 136.7367,53.2796 134.5187,53.2796 C131.7107,53.2796 131.2897,51.9586 131.2897,47.7766 L131.2897,40.4766 L129.6337,40.4766 L129.6337,47.8046 C129.6337,53.0546 130.4197,54.7946 134.3217,54.7946 C136.4837,54.7946 138.6457,53.4756 138.6457,53.4756 L138.6457,54.5146 L140.3027,54.5146 L140.3027,40.4766 L138.6457,40.4766 Z M146.1697,54.5146 L146.1697,42.8916 C146.1697,42.8916 148.3037,41.7106 150.4937,41.7106 C153.3007,41.7106 153.7507,43.0866 153.7507,47.2136 L153.7507,54.5146 L155.4347,54.5146 L155.4347,47.1296 C155.4347,41.9926 154.5927,40.1956 150.7467,40.1956 C148.5287,40.1956 146.1697,41.5156 146.1697,41.5156 L146.1697,40.4766 L144.5137,40.4766 L144.5137,54.5146 L146.1697,54.5146 Z M166.4687,41.9636 L166.4687,40.4766 L161.7797,40.4766 L161.7797,36.0686 L160.0947,36.0686 L160.0947,40.4766 L158.0177,40.4766 L158.0177,41.9636 L160.0947,41.9636 L160.0947,49.7416 C160.0947,53.7846 161.1057,54.8236 163.8857,54.8236 C164.8677,54.8236 166.7207,54.5416 166.7207,54.5416 L166.6087,53.1106 C166.6087,53.1106 164.8117,53.3076 164.0257,53.3076 C162.0047,53.3076 161.7797,52.4086 161.7797,48.8996 L161.7797,41.9636 L166.4687,41.9636 Z M169.1067,54.5146 L170.7627,54.5146 L170.7627,40.4766 L169.1067,40.4766 L169.1067,54.5146 Z M169.1067,36.9666 L170.7627,36.9666 L170.7627,34.8616 L169.1067,34.8616 L169.1067,36.9666 Z M176.6317,54.5146 L176.6317,42.8916 C176.6317,42.8916 178.7647,41.7106 180.9547,41.7106 C183.7627,41.7106 184.2117,43.0866 184.2117,47.2136 L184.2117,54.5146 L185.8967,54.5146 L185.8967,47.1296 C185.8967,41.9926 185.0537,40.1956 181.2077,40.1956 C178.9897,40.1956 176.6317,41.5156 176.6317,41.5156 L176.6317,40.4766 L174.9747,40.4766 L174.9747,54.5146 L176.6317,54.5146 Z M195.1607,61.1676 C199.2037,61.1676 201.3097,59.8756 201.3097,56.7326 C201.3097,53.3346 199.8777,52.6606 196.0597,52.6606 C192.7187,52.6326 192.4937,52.4936 192.4937,51.2856 C192.4937,50.9196 193.0557,49.5446 193.0557,49.5446 C193.3647,49.6016 194.2347,49.6576 194.4877,49.6576 C198.0247,49.6576 199.7937,48.5346 199.7937,44.9676 C199.7937,43.3126 199.3727,42.4976 198.7827,41.9086 L201.5907,41.9636 L201.5907,40.4766 L197.5197,40.5606 C197.5197,40.5606 196.0317,40.1956 194.5717,40.1956 C191.5117,40.1956 189.4897,41.5426 189.4897,44.9676 C189.4897,47.5786 190.5847,48.7026 191.7917,49.2076 C191.7917,49.2076 190.8937,50.9196 190.8937,51.3986 C190.8937,52.2686 191.1177,52.9976 191.5957,53.3076 C190.1077,54.4026 189.3217,55.1316 189.3217,56.8436 C189.3217,60.1016 190.6407,61.1676 195.1607,61.1676 Z M195.9467,54.1496 C198.5867,54.1496 199.5967,54.4026 199.5967,56.7876 C199.5967,58.8666 198.2777,59.7076 195.1887,59.7076 C191.7637,59.7076 191.0057,58.9216 191.0057,56.7326 C191.0057,55.5256 191.4267,54.9916 192.7747,54.0366 C192.7747,54.0366 194.8807,54.1496 195.9467,54.1496 Z M194.5717,48.2526 C192.2127,48.2526 191.2027,47.3826 191.2027,44.9676 C191.2027,42.5266 192.2127,41.5996 194.5717,41.5996 C197.1547,41.5996 198.0807,42.5266 198.0807,44.9676 C198.0807,47.3826 197.1547,48.2526 194.5717,48.2526 Z" id="Fill-6" fill="#ECE8E5" mask="url(#mask-4)"></path>
                <path d="M221.6015,29.4101 L221.6015,9.9261 L217.0155,9.9261 L217.0155,21.7861 L209.7995,9.9261 L204.8625,9.9261 L204.8625,29.4101 L209.4505,29.4101 L209.4505,17.6391 L216.8395,29.4101 L221.6015,29.4101 Z M203.1245,19.8281 C203.1245,13.5191 199.1515,9.3421 193.2205,9.3421 C187.3785,9.3421 183.3475,13.5771 183.3475,19.6531 C183.3475,25.7891 187.3785,29.9941 193.2505,29.9941 C199.0335,29.9941 203.1245,25.7591 203.1245,19.8281 Z M198.0695,19.7411 C198.0695,23.5101 196.2005,25.9051 193.2505,25.9051 C190.2415,25.9051 188.4005,23.5101 188.4005,19.6531 C188.4005,15.8271 190.2415,13.4311 193.2205,13.4311 C196.2595,13.4311 198.0695,15.7971 198.0695,19.7411 Z M167.1475,29.4101 L182.6305,29.4101 L182.6305,25.5251 L172.1145,25.5251 L172.1145,21.0261 L181.0825,21.0261 L181.0825,17.2281 L172.1145,17.2281 L172.1145,13.8101 L181.6945,13.8101 L181.6945,9.9261 L167.1475,9.9261 L167.1475,29.4101 Z M158.4725,29.4101 L163.4375,29.4101 L163.4375,9.9261 L158.4725,9.9261 L158.4725,16.9961 L151.4615,16.9961 L151.4615,9.9261 L146.4965,9.9261 L146.4965,29.4101 L151.4615,29.4101 L151.4615,21.1731 L158.4725,21.1731 L158.4725,29.4101 Z M139.6025,13.8101 L144.6565,13.8101 L144.6565,9.9261 L129.5245,9.9261 L129.5245,13.8101 L134.6365,13.8101 L134.6365,29.4101 L139.6025,29.4101 L139.6025,13.8101 Z M122.8925,29.4101 L127.6545,29.4101 L127.6545,9.9261 L123.0695,9.9261 L123.0695,21.7861 L115.8535,9.9261 L110.9165,9.9261 L110.9165,29.4101 L115.5035,29.4101 L115.5035,17.6391 L122.8925,29.4101 Z M104.5125,29.4101 L109.8285,29.4101 L102.2625,9.9261 L97.2075,9.9261 L89.8465,29.4101 L95.1055,29.4101 L96.1575,26.2551 L103.4605,26.2551 L104.5125,29.4101 Z M102.2625,22.6621 L97.3545,22.6621 L99.7785,15.1841 L102.2625,22.6621 Z M91.6715,16.3821 C91.6715,14.3661 91.0285,12.7301 89.7735,11.5611 C88.6345,10.4521 86.9105,9.9261 84.5735,9.9261 L74.8465,9.9261 L74.8465,29.4101 L79.8115,29.4101 L79.8115,23.0711 L83.4925,23.0711 C85.8885,23.0711 87.7565,22.6341 89.0135,21.7561 C90.7655,20.5581 91.6715,18.7191 91.6715,16.3821 Z M86.7055,16.4981 C86.7055,18.6311 85.5955,19.5661 83.0835,19.5661 L79.8115,19.5661 L79.8115,13.6361 L83.3465,13.6361 C85.6535,13.6361 86.7055,14.5121 86.7055,16.4981 Z" id="Fill-7" fill="#ECE8E5" mask="url(#mask-4)"></path>
                <path d="M226.3604,13.0761 L226.9254,13.0761 L227.5264,14.2101 L228.1644,14.2101 L227.4904,12.9841 C227.9124,12.7921 228.1044,12.5211 228.1044,12.1311 C228.1044,11.8601 227.9944,11.5891 227.8114,11.4151 C227.6184,11.2271 227.3614,11.1491 226.9624,11.1491 L225.7964,11.1491 L225.7964,14.2101 L226.3604,14.2101 L226.3604,13.0761 Z M226.3604,12.5851 L226.3604,11.6391 L226.9164,11.6391 C227.2924,11.6391 227.5084,11.8051 227.5084,12.0991 C227.5084,12.4061 227.2884,12.5851 226.9024,12.5851 L226.3604,12.5851 Z" id="Fill-8" fill="#ECE8E5" mask="url(#mask-4)"></path>
                <path d="M229.6499,12.6796 C229.6499,11.1476 228.4079,9.9076 226.8769,9.9076 C225.3449,9.9076 224.1029,11.1476 224.1029,12.6796 C224.1029,14.2116 225.3449,15.4526 226.8769,15.4526 C228.4079,15.4526 229.6499,14.2116 229.6499,12.6796 M229.1139,12.6796 C229.1139,13.9156 228.1119,14.9166 226.8769,14.9166 C225.6409,14.9166 224.6389,13.9156 224.6389,12.6796 C224.6389,11.4436 225.6409,10.4426 226.8769,10.4426 C228.1119,10.4426 229.1139,11.4436 229.1139,12.6796" id="Fill-9" fill="#ECE8E5" mask="url(#mask-4)"></path>
            </g>
        </g>
    </g>
</svg>